# xmcd
#
# Track frame offsets:
#  150
#  3086
#  6580
#  8209
#
# Disc length: 137 seconds
#
# Revision: 0
# Processed by: cddbd v1.5.1PL2 Copyright (c) Steve Scherf et al.
# Submitted via: AltoMP3_Maker 3.0
#
DISCID=20008704
DTITLE=Qfunk.fm - reclame
DYEAR=1900
DGENRE=
TTITLE0=Sebok Notaris
TTITLE1=Iq Mobile Juni
TTITLE2=Kaise Rulezzzz
TTITLE3=Kaize Rulezzzz
EXTD=
EXTT0=
EXTT1=
EXTT2=
EXTT3=
PLAYORDER=
